<?xml version="1.0" encoding="UTF-8"?>
<svg xmlns="http://www.w3.org/2000/svg" xmlns:xlink="http://www.w3.org/1999/xlink" width="30px" height="23px" viewBox="0 0 30 23" version="1.1">
<g id="surface1">
<rect x="0" y="0" width="30" height="23" style="fill:rgb(0.392157%,12.941176%,41.176471%);fill-opacity:1;stroke:none;"/>
<path style=" stroke:none;fill-rule:nonzero;fill:rgb(100%,100%,100%);fill-opacity:1;" d="M 3.515625 0 L 14.953125 8.671875 L 26.34375 0 L 30 0 L 30 2.972656 L 18.75 11.546875 L 30 20.078125 L 30 23 L 26.25 23 L 15 14.421875 L 3.796875 23 L 0 23 L 0 20.125 L 11.203125 11.597656 L 0 3.066406 L 0 0 Z M 3.515625 0 "/>
<path style=" stroke:none;fill-rule:nonzero;fill:rgb(78.431373%,6.27451%,18.039216%);fill-opacity:1;" d="M 19.875 13.464844 L 30 21.082031 L 30 23 L 17.296875 13.464844 Z M 11.25 14.421875 L 11.53125 16.101562 L 2.53125 23 L 0 23 Z M 30 0 L 30 0.144531 L 18.328125 9.152344 L 18.421875 7.042969 L 27.65625 0 Z M 0 0 L 11.203125 8.433594 L 8.390625 8.433594 L 0 2.011719 Z M 0 0 "/>
<path style=" stroke:none;fill-rule:nonzero;fill:rgb(100%,100%,100%);fill-opacity:1;" d="M 11.296875 0 L 11.296875 23 L 18.796875 23 L 18.796875 0 Z M 0 7.667969 L 0 15.332031 L 30 15.332031 L 30 7.667969 Z M 0 7.667969 "/>
<path style=" stroke:none;fill-rule:nonzero;fill:rgb(78.431373%,6.27451%,18.039216%);fill-opacity:1;" d="M 0 9.246094 L 0 13.847656 L 30 13.847656 L 30 9.246094 Z M 12.796875 0 L 12.796875 23 L 17.296875 23 L 17.296875 0 Z M 12.796875 0 "/>
</g>
</svg>
