<svg width="37" height="36" viewBox="0 0 37 36" fill="none" xmlns="http://www.w3.org/2000/svg">
<path d="M18.3333 33C26.6176 33 33.3333 26.2843 33.3333 18C33.3333 9.71573 26.6176 3 18.3333 3C10.0491 3 3.33334 9.71573 3.33334 18C3.33334 26.2843 10.0491 33 18.3333 33Z" stroke="white" stroke-width="3" stroke-linecap="round" stroke-linejoin="round"/>
<path d="M13.9683 13.4999C14.321 12.4974 15.0171 11.652 15.9333 11.1136C16.8495 10.5751 17.9267 10.3783 18.9741 10.5579C20.0215 10.7376 20.9716 11.2822 21.656 12.0952C22.3404 12.9082 22.7149 13.9372 22.7133 14.9999C22.7133 17.9999 18.2133 19.4999 18.2133 19.4999" stroke="white" stroke-width="3" stroke-linecap="round" stroke-linejoin="round"/>
<path d="M18.3333 25.5H18.3483" stroke="white" stroke-width="3" stroke-linecap="round" stroke-linejoin="round"/>
</svg>
