<svg width="90" height="54" viewBox="0 0 90 54" fill="none" xmlns="http://www.w3.org/2000/svg">
<path d="M90 27C90 41.8154 77.9538 54 63 54C48.1846 54 36 41.8154 36 27C36 12.1846 48.0462 0 62.8615 0C77.9538 0 90 12.1846 90 27Z" fill="#F9B50B"/>
<path d="M53.8615 27.1385C53.8615 25.2 53.5846 23.2615 53.3077 21.4615H36.6923C36.8308 20.4923 37.1077 19.6615 37.3846 18.5538H52.2C51.9231 17.5846 51.5077 16.6154 51.0923 15.6462H38.4923C38.9077 14.6769 39.4615 13.8462 40.0154 12.7385H49.5692C49.0154 11.7692 48.3231 10.8 47.4923 9.83077H42.2308C43.0615 8.86154 43.8923 8.03077 45 7.06154C40.2923 2.63077 33.9231 0 26.8615 0C12.1846 0.415385 0 12.1846 0 27C0 41.8154 12.0462 54 27 54C34.0615 54 40.2923 51.2308 45.1385 46.9385C46.1077 46.1077 46.9385 45.1385 47.9077 44.0308H42.3692C41.6769 43.2 40.9846 42.2308 40.4308 41.2615H49.8462C50.4 40.4308 50.9538 39.4615 51.3692 38.3538H38.7692C38.3538 37.5231 37.9385 36.5538 37.6615 35.4462H52.4769C53.3077 32.9538 53.8615 30.1846 53.8615 27.1385Z" fill="#C8191C"/>
<path d="M36.5538 33.9231L36.9692 31.4308C36.8308 31.4308 36.5538 31.5692 36.2769 31.5692C35.3077 31.5692 35.1692 31.0154 35.3077 30.7385L36.1385 25.7538H37.6615L38.0769 22.9846H36.6923L36.9692 21.3231H34.0615C34.0615 21.3231 32.4 30.7385 32.4 31.8462C32.4 33.5077 33.3692 34.3385 34.7538 34.3385C35.5846 34.3385 36.2769 34.0615 36.5538 33.9231Z" fill="white"/>
<path d="M37.5231 29.3538C37.5231 33.3692 40.2923 34.3385 42.5077 34.3385C44.5846 34.3385 45.5538 33.9231 45.5538 33.9231L46.1077 31.1538C46.1077 31.1538 44.5846 31.8462 43.0615 31.8462C39.8769 31.8462 40.4308 29.4923 40.4308 29.4923H46.2462C46.2462 29.4923 46.6615 27.6923 46.6615 26.8615C46.6615 25.0615 45.6923 22.7077 42.5077 22.7077C39.7385 22.5692 37.5231 25.7538 37.5231 29.3538ZM42.5077 25.2C44.0308 25.2 43.7538 27 43.7538 27.1385H40.5692C40.7077 27 40.9846 25.2 42.5077 25.2Z" fill="white"/>
<path d="M60.6462 33.9231L61.2 30.7385C61.2 30.7385 59.8154 31.4308 58.7077 31.4308C56.7692 31.4308 55.8 29.9077 55.8 28.1077C55.8 24.6462 57.4615 22.8462 59.5385 22.8462C60.9231 22.8462 62.1692 23.6769 62.1692 23.6769L62.5846 20.6308C62.5846 20.6308 60.9231 19.9385 59.2615 19.9385C55.9385 19.9385 52.7538 22.8462 52.7538 28.2462C52.7538 31.8462 54.4154 34.2 57.8769 34.2C59.1231 34.3385 60.6462 33.9231 60.6462 33.9231Z" fill="white"/>
<path d="M20.9077 22.5692C18.9692 22.5692 17.4462 23.1231 17.4462 23.1231L17.0308 25.6154C17.0308 25.6154 18.2769 25.0615 20.2154 25.0615C21.1846 25.0615 22.0154 25.2 22.0154 26.0308C22.0154 26.5846 21.8769 26.7231 21.8769 26.7231H20.6308C18.1385 26.7231 15.5077 27.6923 15.5077 31.0154C15.5077 33.6462 17.1692 34.2 18.2769 34.2C20.2154 34.2 21.1846 32.9538 21.3231 32.9538L21.1846 34.0615H23.5385L24.6462 26.1692C24.6462 22.7077 21.8769 22.5692 20.9077 22.5692ZM21.4615 28.9385C21.4615 29.3538 21.1846 31.7077 19.5231 31.7077C18.6923 31.7077 18.4154 31.0154 18.4154 30.6C18.4154 29.9077 18.8308 28.9385 21.0462 28.9385C21.3231 28.9385 21.4615 28.9385 21.4615 28.9385Z" fill="white"/>
<path d="M27.4154 34.2C28.1077 34.2 31.7077 34.3385 31.7077 30.4615C31.7077 26.8615 28.2462 27.5538 28.2462 26.1692C28.2462 25.4769 28.8 25.2 29.7692 25.2C30.1846 25.2 31.7077 25.3385 31.7077 25.3385L32.1231 22.7077C32.1231 22.7077 31.1539 22.4308 29.3539 22.4308C27.2769 22.4308 25.0616 23.2615 25.0616 26.1692C25.0616 29.4923 28.6616 29.2154 28.6616 30.4615C28.6616 31.2923 27.6923 31.4308 27 31.4308C25.7539 31.4308 24.3692 31.0154 24.3692 31.0154L23.9539 33.6462C24.2308 33.9231 25.0615 34.2 27.4154 34.2Z" fill="white"/>
<path d="M84.4615 20.3538L83.9077 24.2308C83.9077 24.2308 82.8 22.8462 81.1385 22.8462C78.5077 22.8462 76.2923 26.0308 76.2923 29.7692C76.2923 32.1231 77.4 34.4769 79.8923 34.4769C81.5538 34.4769 82.6615 33.3692 82.6615 33.3692L82.5231 34.3385H85.4308L87.5077 20.6308L84.4615 20.3538ZM83.0769 27.8308C83.0769 29.3538 82.3846 31.4308 80.7231 31.4308C79.7538 31.4308 79.2 30.6 79.2 29.0769C79.2 26.7231 80.1692 25.3385 81.5538 25.3385C82.5231 25.4769 83.0769 26.1692 83.0769 27.8308Z" fill="white"/>
<path d="M5.26154 34.0615L6.92308 23.8154L7.2 34.0615H9.13846L12.8769 23.8154L11.3538 34.0615H14.4L16.7538 20.3538H12.0462L9.13846 28.8L9 20.3538H4.84616L2.49231 34.0615H5.26154Z" fill="white"/>
<path d="M49.5692 34.0615C50.4 29.3538 50.5385 25.4769 52.6154 26.1692C52.8923 24.3692 53.3077 23.5385 53.5846 22.8462H53.0308C51.7846 22.8462 50.6769 24.5077 50.6769 24.5077L50.9538 22.9846H48.1846L46.3846 34.0615H49.5692Z" fill="white"/>
<path d="M67.2923 22.5692C65.3538 22.5692 63.8308 23.1231 63.8308 23.1231L63.4154 25.6154C63.4154 25.6154 64.6615 25.0615 66.6 25.0615C67.5692 25.0615 68.4 25.2 68.4 26.0308C68.4 26.5846 68.2615 26.7231 68.2615 26.7231H67.0154C64.5231 26.7231 61.8923 27.6923 61.8923 31.0154C61.8923 33.6462 63.5538 34.2 64.6615 34.2C66.6 34.2 67.5692 32.9538 67.7077 32.9538L67.5692 34.0615H70.2L71.3077 26.1692C71.3077 22.7077 68.2615 22.5692 67.2923 22.5692ZM67.9846 28.9385C67.9846 29.3538 67.7077 31.7077 66.0462 31.7077C65.2154 31.7077 64.9385 31.0154 64.9385 30.6C64.9385 29.9077 65.3538 28.9385 67.5692 28.9385C67.8461 28.9385 67.8461 28.9385 67.9846 28.9385Z" fill="white"/>
<path d="M73.5231 34.0615C74.3539 29.3538 74.4923 25.4769 76.5692 26.1692C76.8462 24.3692 77.2615 23.5385 77.5385 22.8462H76.9846C75.7385 22.8462 74.6308 24.5077 74.6308 24.5077L74.9077 22.9846H72.1385L70.3385 34.0615H73.5231Z" fill="white"/>
</svg>
