<svg width="37" height="36" viewBox="0 0 37 36" fill="none" xmlns="http://www.w3.org/2000/svg">
<path d="M32.1667 17.25C32.1718 19.2298 31.7093 21.1829 30.8167 22.95C29.7583 25.0677 28.1313 26.8488 26.1178 28.094C24.1044 29.3391 21.784 29.9991 19.4167 30C17.4369 30.0052 15.4838 29.5426 13.7167 28.65L5.16667 31.5L8.01667 22.95C7.12407 21.1829 6.66151 19.2298 6.66667 17.25C6.66759 14.8827 7.32759 12.5623 8.57275 10.5489C9.81791 8.53542 11.5991 6.90839 13.7167 5.85004C15.4838 4.95744 17.4369 4.49488 19.4167 4.50004H20.1667C23.2932 4.67253 26.2462 5.99218 28.4604 8.20633C30.6745 10.4205 31.9942 13.3735 32.1667 16.5V17.25Z" stroke="white" stroke-width="3" stroke-linecap="round" stroke-linejoin="round"/>
</svg>
