<svg width="35" height="30" viewBox="0 0 35 30" fill="none" xmlns="http://www.w3.org/2000/svg">
<path fill-rule="evenodd" clip-rule="evenodd" d="M2.48501 12.6622C11.8137 8.59783 18.0342 5.91837 21.1467 4.62379C30.0334 0.927491 31.88 0.285405 33.0836 0.264203C33.3483 0.25954 33.9402 0.325144 34.3236 0.636246C34.6473 0.898934 34.7364 1.25379 34.779 1.50284C34.8217 1.7519 34.8747 2.31926 34.8325 2.76258C34.351 7.82253 32.2672 20.1017 31.2071 25.7689C30.7585 28.1669 29.8753 28.971 29.0202 29.0497C27.1619 29.2207 25.7508 27.8216 23.9509 26.6418C21.1345 24.7956 19.5434 23.6463 16.8096 21.8448C13.6502 19.7628 15.6983 18.6185 17.4988 16.7483C17.97 16.2589 26.1578 8.81158 26.3162 8.13599C26.3361 8.0515 26.3544 7.73654 26.1673 7.57024C25.9802 7.40393 25.7041 7.4608 25.5048 7.50603C25.2223 7.57014 20.7231 10.544 12.007 16.4276C10.7299 17.3045 9.57315 17.7318 8.53673 17.7094C7.39417 17.6847 5.19633 17.0634 3.56246 16.5323C1.55846 15.8808 -0.03428 15.5364 0.104412 14.4301C0.176651 13.8539 0.970185 13.2646 2.48501 12.6622Z" fill="white"/>
</svg>
