<svg width="48" height="48" viewBox="0 0 48 48" fill="none" xmlns="http://www.w3.org/2000/svg">
<path d="M40 42V38C40 35.8783 39.1571 33.8434 37.6569 32.3431C36.1566 30.8429 34.1217 30 32 30H16C13.8783 30 11.8434 30.8429 10.3431 32.3431C8.84285 33.8434 8 35.8783 8 38V42" stroke="url(#paint0_linear_51_170)" stroke-width="4" stroke-linecap="round" stroke-linejoin="round"/>
<path d="M24 22C28.4183 22 32 18.4183 32 14C32 9.58172 28.4183 6 24 6C19.5817 6 16 9.58172 16 14C16 18.4183 19.5817 22 24 22Z" stroke="url(#paint1_linear_51_170)" stroke-width="4" stroke-linecap="round" stroke-linejoin="round"/>
<circle cx="40" cy="8" r="7.5" fill="#57B92A" stroke="#141318"/>
<defs>
<linearGradient id="paint0_linear_51_170" x1="8" y1="42" x2="16.1621" y2="20.7705" gradientUnits="userSpaceOnUse">
<stop stop-color="#EDA90D"/>
<stop offset="1" stop-color="#F8D903"/>
</linearGradient>
<linearGradient id="paint1_linear_51_170" x1="16" y1="22" x2="32.24" y2="6.16" gradientUnits="userSpaceOnUse">
<stop stop-color="#EDA90D"/>
<stop offset="1" stop-color="#F8D903"/>
</linearGradient>
</defs>
</svg>
