<svg width="130" height="40" viewBox="0 0 130 40" fill="none" xmlns="http://www.w3.org/2000/svg">
<path d="M121.257 0.614029H113.085C110.614 0.614029 108.713 1.37426 107.573 3.84502L91.9883 39.386H103.012C103.012 39.386 104.912 34.6345 105.292 33.4942C106.433 33.4942 117.266 33.4942 118.787 33.4942C119.167 34.8246 120.117 39.1959 120.117 39.1959H130L121.257 0.614029ZM108.333 25.5117C109.284 23.231 112.515 14.6784 112.515 14.6784C112.515 14.8684 113.465 12.3977 113.845 11.0672L114.605 14.4883C114.605 14.4883 116.696 23.8012 117.076 25.7018H108.333V25.5117Z" fill="#3362AB"/>
<path d="M92.7485 26.6521C92.7485 34.6345 85.5263 39.9561 74.3129 39.9561C69.5614 39.9561 65 39.0059 62.5292 37.8655L64.0497 29.1228L65.3801 29.693C68.8012 31.2135 71.0819 31.7836 75.2632 31.7836C78.3041 31.7836 81.5351 30.6433 81.5351 27.9825C81.5351 26.2719 80.2047 25.1316 76.0234 23.231C72.0322 21.3304 66.7105 18.2895 66.7105 12.7778C66.7105 5.17544 74.1228 0.0438538 84.576 0.0438538C88.5672 0.0438538 91.9883 0.804088 94.0789 1.75438L92.5585 10.117L91.7982 9.35672C89.8977 8.59649 87.4269 7.83625 83.8158 7.83625C79.8246 8.02631 77.924 9.73684 77.924 11.2573C77.924 12.9678 80.2047 14.2982 83.8158 16.0088C89.8977 18.8596 92.7485 22.0906 92.7485 26.6521Z" fill="#3362AB"/>
<path d="M0 0.994144L0.190058 0.23391H16.5351C18.8158 0.23391 20.5263 0.994144 21.0965 3.4649L24.7076 20.5702C21.0965 11.4474 12.7339 4.03508 0 0.994144Z" fill="#F9B50B"/>
<path d="M47.7047 0.614032L31.1696 39.1959H19.9561L10.4532 6.88596C17.2953 11.2573 22.9971 18.0994 25.0877 22.8509L26.2281 26.8421L36.4912 0.423973H47.7047V0.614032Z" fill="#3362AB"/>
<path d="M52.076 0.423973H62.5292L55.8772 39.1959H45.424L52.076 0.423973Z" fill="#3362AB"/>
</svg>
