<svg width="43" height="26" viewBox="0 0 43 26" fill="none" xmlns="http://www.w3.org/2000/svg">
<path fill-rule="evenodd" clip-rule="evenodd" d="M6.33332 0H1.66772C0.334385 0 0.0677185 0.627201 0.0677185 1.32053C0.0677185 2.55573 1.64852 8.68693 7.43412 16.7936C11.2891 22.3317 16.7227 25.3333 21.6656 25.3333C24.6331 25.3333 25 24.6656 25 23.52V19.3344C25 18.0011 25.2816 17.7344 26.2203 17.7344C26.9136 17.7344 28.0976 18.08 30.8688 20.7488C34.0325 23.9147 34.5531 25.3333 36.3323 25.3333H41C42.3333 25.3333 43.0011 24.6656 42.6149 23.3493C42.1947 22.0395 40.6842 20.1365 38.6789 17.8816C37.5909 16.5973 35.9611 15.2128 35.4661 14.5195C34.7728 13.6299 34.9712 13.2352 35.4661 12.4437C35.4661 12.4437 41.1515 4.4352 41.7445 1.7152C42.0432 0.727466 41.7445 0 40.3323 0H35.6667C34.4805 0 33.9323 0.627201 33.6357 1.32053C33.6357 1.32053 31.2635 7.104 27.9013 10.8608C26.8133 11.9488 26.3184 12.2965 25.7253 12.2965C25.4288 12.2965 25 11.9488 25 10.9611V1.7152C25 0.529066 24.6565 0 23.6667 0H16.3323C15.592 0 15.1461 0.550401 15.1461 1.07307C15.1461 2.19733 16.8272 2.4576 17 5.62133V12.4928C17 14.0011 16.729 14.2741 16.1339 14.2741C14.5531 14.2741 10.7045 8.46293 8.42185 1.81547C7.97385 0.522666 7.52585 0 6.33332 0Z" fill="white"/>
</svg>
